<svg width="33" height="35" viewBox="0 0 33 35" fill="none" xmlns="http://www.w3.org/2000/svg">
<g clip-path="url(#clip0_70_2538)">
<path d="M23.4532 34.7696C21.6069 34.7696 19.8021 34.2221 18.2669 33.1964C16.7318 32.1706 15.5353 30.7127 14.8288 29.007C14.1222 27.3012 13.9373 25.4243 14.2975 23.6134C14.6577 21.8026 15.5468 20.1393 16.8523 18.8338C18.1579 17.5283 19.8212 16.6392 21.632 16.279C23.4428 15.9188 25.3198 16.1037 27.0255 16.8102C28.7313 17.5167 30.1892 18.7132 31.2149 20.2484C32.2407 21.7835 32.7882 23.5883 32.7882 25.4346C32.7845 27.9093 31.7998 30.2815 30.0499 32.0314C28.3001 33.7812 25.9278 34.7659 23.4532 34.7696Z" fill="#01B806"/>
<path d="M16.342 31.3281H2.53498C1.99639 31.3281 1.47979 31.1145 1.09849 30.7341C0.717181 30.3537 0.502301 29.8377 0.500977 29.2991L0.759976 6.95508" stroke="#0066B3" stroke-miterlimit="10"/>
<path d="M7.33594 0.720976L23.0259 0.500977C23.5621 0.500953 24.0766 0.712639 24.4575 1.08999C24.8384 1.46734 25.0549 1.97983 25.0599 2.51598V21.981" stroke="#0066B3" stroke-miterlimit="10"/>
<path d="M3.9209 11.853L13.1609 11.668" stroke="#0066B3" stroke-linecap="round" stroke-linejoin="round"/>
<path d="M3.9209 15.6338H20.4109" stroke="#0066B3" stroke-linecap="round" stroke-linejoin="round"/>
<path d="M3.896 19.4014H20.406" stroke="#0066B3" stroke-linecap="round" stroke-linejoin="round"/>
<path d="M0.72998 7.02364H6.96498C6.99274 7.01764 7.01795 7.00315 7.03712 6.98219C7.05629 6.96123 7.06847 6.93483 7.07198 6.90664V0.681641L0.72998 7.02364Z" stroke="#0066B3" stroke-linecap="round" stroke-linejoin="round"/>
<path d="M21.4551 33.876C20.1736 33.876 18.9209 33.496 17.8554 32.784C16.7899 32.072 15.9595 31.0601 15.4692 29.8761C14.9788 28.6922 14.8506 27.3894 15.1006 26.1326C15.3507 24.8758 15.9679 23.7213 16.8741 22.8153C17.7803 21.9092 18.9348 21.2922 20.1917 21.0423C21.4486 20.7925 22.7513 20.9209 23.9352 21.4114C25.119 21.902 26.1309 22.7326 26.8427 23.7982C27.5545 24.8638 27.9343 26.1165 27.9341 27.398C27.9314 29.1155 27.248 30.7619 26.0335 31.9764C24.819 33.1909 23.1726 33.8733 21.4551 33.876Z" stroke="#0066B3" stroke-linejoin="bevel"/>
<path d="M18.5269 27.0024L20.4539 29.0514L24.5809 25.0264" stroke="#0066B3" stroke-linecap="round" stroke-linejoin="round"/>
<path d="M16.2588 4.40918H21.4248" stroke="#0066B3" stroke-linecap="round" stroke-linejoin="round"/>
<path d="M17.6058 4.39386C18.1576 4.38448 18.6912 4.5909 19.0929 4.96914C19.4947 5.34739 19.7329 5.86757 19.7568 6.41886C19.8058 8.41886 16.9858 8.07786 16.9858 8.07786L19.9128 11.1369" stroke="#0066B3" stroke-linecap="round" stroke-linejoin="round"/>
<path d="M16.249 6.3457L21.367 6.3947" stroke="#0066B3" stroke-linecap="round" stroke-linejoin="round"/>
</g>
<defs>
<clipPath id="clip0_70_2538">
<rect width="32.788" height="34.77" fill="white"/>
</clipPath>
</defs>
</svg>
